<?xml version="1.0" encoding="UTF-8"?>
<svg id="Capa_2" data-name="Capa 2" xmlns="http://www.w3.org/2000/svg" viewBox="0 0 712.81 172.55">
  <g id="Capa_1-2" data-name="Capa 1">
    <g>
      <path d="M445.84,169.54l-.91-13.37,16.03-3.12c1.21-1.81,1.09-3.92,1.21-5.99,1.64-27.89-.9-57.85-.56-85.87.53-5.9-15.32-4.78-16.61-6.8-.82-1.27.22-10.94,1.29-12.35,1.88-2.47,8.66-.03,11.48.06,6.29.2,34.65-1.24,37.63,1.2l47.69,85.05,2.41,2.85-.93-72.19-15.89-4.43c-1.21-1.74-.14-11.94,1.43-13.05,16.77.12,34,1.77,50.85-.43l.92,14.34-15.35,3.51-.9,110.6c-5.41.28-29.21,2.62-32.13,0l-51.26-91.07.94,74.77c2.08-.55,14.71,2.22,15.22,3,.77,1.19-.16,13.29-.83,13.29h-51.76Z"/>
      <path d="M1.2,169.43c-.91-.77-1.59-12.48-.96-13.22,1.87-2.19,18.31.14,17.06-8.34-.3-29.79,1.19-59.75-.96-89.43L.15,55.47c-.04-4.79-.38-9.64,1.06-14.26,13.52.96,27.1,1.01,40.68.89,27.52-.24,53.67-6.94,71.58,20.34,26.81,40.84,3.76,105.41-48.58,108.09-5.52.28-10.48-1.01-15.34-1.04-6.21-.05-46.5,1.5-48.34-.07ZM45.19,151.33h23.48c2.05,0,11.27-2.78,13.28-3.97,18.67-11.11,13.96-55.86,4.26-72.03-3.34-5.57-13.67-16.01-20.41-16.01h-19.17l-1.44,1.44v90.58Z"/>
      <path d="M426.67,69.38c-.13,1.52-2.25,12.12-2.81,12.52l-16.35-.55-2.88-21.08h-34.51v35.46l33.05-.96c6.14-.35,2.38,17.41,1.33,18.08-.74.48-15.15.24-17.64.17-2.33-.07-16.73-2.81-16.73.44v36.42l1.44,1.44h33.07l6.84-23.83,16.17.82c-.11,10.81.13,22.31-.98,33.06-.17,1.68-1.43,8.16-3.34,8.16h-97.29l-.96-13.42c2.44.25,15.01-2.04,16.08-3.09.85-.83,1.12-5.42,1.22-6.93,1.51-21.99,1.45-55.7,0-77.72-.21-3.14-1.47-6.14-.96-9.38-.52-2.32-15.57-3.61-16.2-4.61-.86-1.36-.03-10.78,1.3-12.33l96.8-.95c1.01-.11,3.37,1.94,3.37,2.4,0,8.21.69,17.9,0,25.88Z"/>
      <path d="M303.03,79.45c-5.53.34-10.95-.34-16.36-1.38l-3.31-17.77c-2.97-3.96-26.82-3.41-31.44-.8-7.46,4.22-3.56,17.52,1.9,22.67,19.82,18.7,63.96,15.85,54.51,58.66-8.79,39.85-63.68,35.85-92.11,22.01-.99-1.6,3.75-36.14,5.47-37.25,1.3-.84,15.52,1.11,16.03,1.92,1.55,2.47-.62,19.84,3.56,22.8,6.87,4.87,30.01,4.61,35.88-3.28,15.46-20.78-30.03-30.62-41.51-38.05-23.79-15.4-22.55-51.74,3.19-64.49,18.58-9.21,48.62-6.24,66.76,2.8l-2.55,32.17Z"/>
      <path d="M651.92,169.54l-.9-13.37,17.2-2.93-6.86-19.97c-13.59-1.42-27.49-1.58-41.1-.68l-6.65,20.6,16.22,2.96-.91,13.37h-49.84l-.86-13.32c4.29-1.66,12.99-1.19,15.47-5.14l38.04-106.45c1.65-2.46,23.18-4.74,25.97-3.06l40.39,110.09,1.47,1.4,13.27,3.96c-.84,2.11.31,12.51-1.95,12.51h-58.95ZM626.04,115.87h28.75l-14.85-42.18-13.91,42.18Z"/>
      <path d="M139.12,169.54l-.95-13.41,15.61-2.86c1.25-.74,1.54-4.7,1.67-6.23,1.74-21.54,1.71-59.94-.05-81.49-.19-2.33-1.1-4.68-1.08-7.07l-16.15-3.02.96-14.36c19.61,1,39.86,1.98,59.4-.02,1.5,4.59,1,9.52.88,14.29l-15.19,3.01-.05,92.45c.05,1.2.42,1.84,1.6,2.23,2.14.71,12.52,1.47,13.6,3.17.64,1,.58,13.28-1.3,13.28h-58.95Z"/>
      <path d="M490.69.09c13.49-1.23,34.75,10.6,47.67,10.36,5.06-.09,11.62-7.88,13.25-7.62l7.01,9.03c-4.17,6.71-12.36,17.04-20.53,18.47-15.25,2.66-42.82-12.5-53.66-8.6-2.48.89-7.85,6.64-8.39,6.69-2,.16-7.07-6.89-7.2-8.94-.42-6.7,15.02-18.76,21.84-19.38Z"/>
    </g>
  </g>
</svg>